<mxfile host="app.diagrams.net" agent="Mozilla/5.0 (Windows NT 10.0; Win64; x64) AppleWebKit/537.36 (KHTML, like Gecko) Chrome/138.0.0.0 Safari/537.36" version="28.0.9">
  <diagram id="zhS1jmQ38YQdUPy5dJZc" name="Page-1">
    <mxGraphModel dx="2430" dy="5323" grid="1" gridSize="10" guides="1" tooltips="1" connect="1" arrows="1" fold="1" page="1" pageScale="1" pageWidth="1600" pageHeight="1200" math="0" shadow="0">
      <root>
        <mxCell id="0" />
        <mxCell id="1" parent="0" />
        <mxCell id="10" style="edgeStyle=none;html=1;" parent="1" source="2" edge="1">
          <mxGeometry relative="1" as="geometry">
            <mxPoint x="410" y="340" as="targetPoint" />
          </mxGeometry>
        </mxCell>
        <mxCell id="2" value="Game" style="rounded=1;whiteSpace=wrap;html=1;" parent="1" vertex="1">
          <mxGeometry x="360" y="230" width="100" height="30" as="geometry" />
        </mxCell>
        <mxCell id="12" style="edgeStyle=none;html=1;exitX=1;exitY=0.75;exitDx=0;exitDy=0;entryX=0;entryY=0.5;entryDx=0;entryDy=0;" parent="1" source="11" target="15" edge="1">
          <mxGeometry relative="1" as="geometry">
            <mxPoint x="620" y="320" as="targetPoint" />
          </mxGeometry>
        </mxCell>
        <mxCell id="89" style="edgeStyle=none;html=1;entryX=0.5;entryY=0;entryDx=0;entryDy=0;" parent="1" source="11" target="75" edge="1">
          <mxGeometry relative="1" as="geometry" />
        </mxCell>
        <mxCell id="11" value="Pygame Inhalte&lt;div&gt;&lt;br&gt;&lt;/div&gt;&lt;div&gt;Gamestate&lt;/div&gt;&lt;div&gt;Main Run()&lt;/div&gt;" style="rounded=0;whiteSpace=wrap;html=1;" parent="1" vertex="1">
          <mxGeometry x="350" y="340" width="130" height="90" as="geometry" />
        </mxCell>
        <mxCell id="70" style="edgeStyle=none;html=1;entryX=0;entryY=0.5;entryDx=0;entryDy=0;" parent="1" source="14" target="69" edge="1">
          <mxGeometry relative="1" as="geometry" />
        </mxCell>
        <mxCell id="14" value="Execute Currrently Active gameStates&lt;div&gt;Run()&lt;/div&gt;" style="ellipse;whiteSpace=wrap;html=1;" parent="1" vertex="1">
          <mxGeometry x="750" y="355" width="130" height="90" as="geometry" />
        </mxCell>
        <mxCell id="16" style="edgeStyle=none;html=1;entryX=0;entryY=0.5;entryDx=0;entryDy=0;" parent="1" source="15" target="14" edge="1">
          <mxGeometry relative="1" as="geometry" />
        </mxCell>
        <mxCell id="15" value="GameStateManager" style="rounded=1;whiteSpace=wrap;html=1;" parent="1" vertex="1">
          <mxGeometry x="580" y="370" width="150" height="60" as="geometry" />
        </mxCell>
        <mxCell id="29" style="edgeStyle=none;html=1;exitX=1;exitY=0;exitDx=0;exitDy=0;entryX=0;entryY=0.5;entryDx=0;entryDy=0;" parent="1" source="21" target="28" edge="1">
          <mxGeometry relative="1" as="geometry" />
        </mxCell>
        <mxCell id="21" value="Startscreen" style="rounded=1;whiteSpace=wrap;html=1;" parent="1" vertex="1">
          <mxGeometry x="1083" y="250" width="120" height="60" as="geometry" />
        </mxCell>
        <mxCell id="36" style="edgeStyle=none;html=1;entryX=0;entryY=0.5;entryDx=0;entryDy=0;" parent="1" source="22" target="30" edge="1">
          <mxGeometry relative="1" as="geometry" />
        </mxCell>
        <mxCell id="22" value="Level" style="rounded=1;whiteSpace=wrap;html=1;" parent="1" vertex="1">
          <mxGeometry x="1083" y="355" width="120" height="60" as="geometry" />
        </mxCell>
        <mxCell id="46" style="edgeStyle=none;html=1;entryX=0;entryY=0.5;entryDx=0;entryDy=0;" parent="1" source="23" target="31" edge="1">
          <mxGeometry relative="1" as="geometry">
            <Array as="points">
              <mxPoint x="1143" y="540" />
            </Array>
          </mxGeometry>
        </mxCell>
        <mxCell id="23" value="Fight" style="rounded=1;whiteSpace=wrap;html=1;" parent="1" vertex="1">
          <mxGeometry x="1083" y="445" width="120" height="60" as="geometry" />
        </mxCell>
        <mxCell id="24" value="Endscreen" style="rounded=1;whiteSpace=wrap;html=1;" parent="1" vertex="1">
          <mxGeometry x="1083" y="710" width="120" height="60" as="geometry" />
        </mxCell>
        <mxCell id="28" value="StartScreen Image" style="rounded=0;whiteSpace=wrap;html=1;" parent="1" vertex="1">
          <mxGeometry x="1263" y="200" width="120" height="60" as="geometry" />
        </mxCell>
        <mxCell id="53" style="edgeStyle=none;html=1;entryX=0;entryY=0.5;entryDx=0;entryDy=0;" parent="1" source="30" target="54" edge="1">
          <mxGeometry relative="1" as="geometry">
            <mxPoint x="1633" y="270" as="targetPoint" />
            <Array as="points">
              <mxPoint x="1313" y="270" />
            </Array>
          </mxGeometry>
        </mxCell>
        <mxCell id="30" value="Player Movement&lt;div&gt;Map&lt;/div&gt;&lt;div&gt;Collisions&lt;/div&gt;&lt;div&gt;Enemys&lt;/div&gt;" style="rounded=0;whiteSpace=wrap;html=1;" parent="1" vertex="1">
          <mxGeometry x="1254" y="320" width="120" height="130" as="geometry" />
        </mxCell>
        <mxCell id="51" value="" style="edgeStyle=none;html=1;" parent="1" source="31" target="50" edge="1">
          <mxGeometry relative="1" as="geometry" />
        </mxCell>
        <mxCell id="31" value="No Movement&lt;div&gt;Static View&lt;/div&gt;&lt;div&gt;&lt;br&gt;&lt;/div&gt;&lt;div&gt;Attacks take turns&lt;/div&gt;" style="rounded=0;whiteSpace=wrap;html=1;" parent="1" vertex="1">
          <mxGeometry x="1254" y="470" width="120" height="140" as="geometry" />
        </mxCell>
        <mxCell id="35" style="edgeStyle=none;html=1;entryX=1;entryY=0.5;entryDx=0;entryDy=0;" parent="1" source="33" target="30" edge="1">
          <mxGeometry relative="1" as="geometry" />
        </mxCell>
        <mxCell id="33" value="Map Rendering&lt;div&gt;Map Tiles (Artworks)&lt;/div&gt;" style="rounded=0;whiteSpace=wrap;html=1;" parent="1" vertex="1">
          <mxGeometry x="1433" y="310" width="120" height="60" as="geometry" />
        </mxCell>
        <mxCell id="45" style="edgeStyle=none;html=1;entryX=1;entryY=0.25;entryDx=0;entryDy=0;" parent="1" source="37" target="23" edge="1">
          <mxGeometry relative="1" as="geometry">
            <mxPoint x="1493" y="520" as="targetPoint" />
            <Array as="points">
              <mxPoint x="1483" y="490" />
              <mxPoint x="1413" y="490" />
              <mxPoint x="1413" y="460" />
            </Array>
          </mxGeometry>
        </mxCell>
        <mxCell id="37" value="Enemies Rendering&lt;div&gt;Artwork&lt;/div&gt;&lt;div&gt;Stats&lt;/div&gt;&lt;div&gt;&lt;br&gt;&lt;/div&gt;&lt;div&gt;Fight?&lt;/div&gt;" style="rounded=0;whiteSpace=wrap;html=1;" parent="1" vertex="1">
          <mxGeometry x="1433" y="380" width="120" height="100" as="geometry" />
        </mxCell>
        <mxCell id="41" style="edgeStyle=none;html=1;entryX=1;entryY=0.5;entryDx=0;entryDy=0;" parent="1" source="40" target="37" edge="1">
          <mxGeometry relative="1" as="geometry" />
        </mxCell>
        <mxCell id="43" style="edgeStyle=none;html=1;" parent="1" source="40" target="42" edge="1">
          <mxGeometry relative="1" as="geometry" />
        </mxCell>
        <mxCell id="40" value="Enemy" style="rounded=1;whiteSpace=wrap;html=1;" parent="1" vertex="1">
          <mxGeometry x="1643" y="405" width="130" height="50" as="geometry" />
        </mxCell>
        <mxCell id="47" style="edgeStyle=none;html=1;entryX=1;entryY=0.5;entryDx=0;entryDy=0;" parent="1" source="42" target="31" edge="1">
          <mxGeometry relative="1" as="geometry">
            <Array as="points">
              <mxPoint x="1793" y="540" />
            </Array>
          </mxGeometry>
        </mxCell>
        <mxCell id="42" value="Stats" style="ellipse;whiteSpace=wrap;html=1;" parent="1" vertex="1">
          <mxGeometry x="1833" y="405" width="75" height="50" as="geometry" />
        </mxCell>
        <mxCell id="44" style="edgeStyle=none;html=1;entryX=1.007;entryY=0.631;entryDx=0;entryDy=0;entryPerimeter=0;" parent="1" source="37" target="30" edge="1">
          <mxGeometry relative="1" as="geometry" />
        </mxCell>
        <mxCell id="52" style="edgeStyle=none;html=1;entryX=0;entryY=0.5;entryDx=0;entryDy=0;" parent="1" source="50" target="22" edge="1">
          <mxGeometry relative="1" as="geometry">
            <Array as="points">
              <mxPoint x="1023" y="550" />
              <mxPoint x="1023" y="415" />
            </Array>
          </mxGeometry>
        </mxCell>
        <mxCell id="57" style="edgeStyle=none;html=1;entryX=0.5;entryY=1;entryDx=0;entryDy=0;" parent="1" source="50" target="40" edge="1">
          <mxGeometry relative="1" as="geometry">
            <mxPoint x="1873" y="690" as="targetPoint" />
            <Array as="points">
              <mxPoint x="1708" y="660" />
            </Array>
          </mxGeometry>
        </mxCell>
        <mxCell id="59" style="edgeStyle=none;html=1;entryX=1;entryY=0.5;entryDx=0;entryDy=0;" parent="1" source="50" target="55" edge="1">
          <mxGeometry relative="1" as="geometry">
            <Array as="points">
              <mxPoint x="1353" y="710" />
              <mxPoint x="1923" y="710" />
              <mxPoint x="1923" y="295" />
            </Array>
          </mxGeometry>
        </mxCell>
        <mxCell id="67" style="edgeStyle=none;html=1;" parent="1" source="50" target="66" edge="1">
          <mxGeometry relative="1" as="geometry" />
        </mxCell>
        <mxCell id="50" value="Death /&lt;div&gt;Win&lt;/div&gt;" style="rhombus;whiteSpace=wrap;html=1;rounded=0;" parent="1" vertex="1">
          <mxGeometry x="1274" y="650" width="80" height="80" as="geometry" />
        </mxCell>
        <mxCell id="56" style="edgeStyle=none;html=1;entryX=0;entryY=0.5;entryDx=0;entryDy=0;" parent="1" source="54" target="55" edge="1">
          <mxGeometry relative="1" as="geometry" />
        </mxCell>
        <mxCell id="54" value="Player" style="rounded=1;whiteSpace=wrap;html=1;" parent="1" vertex="1">
          <mxGeometry x="1633" y="240" width="120" height="60" as="geometry" />
        </mxCell>
        <mxCell id="55" value="Stats" style="ellipse;whiteSpace=wrap;html=1;" parent="1" vertex="1">
          <mxGeometry x="1813" y="245" width="75" height="50" as="geometry" />
        </mxCell>
        <mxCell id="58" value="Changes" style="text;html=1;align=center;verticalAlign=middle;resizable=0;points=[];autosize=1;strokeColor=none;fillColor=none;" parent="1" vertex="1">
          <mxGeometry x="1533" y="710" width="70" height="30" as="geometry" />
        </mxCell>
        <mxCell id="61" value="Deletes" style="text;html=1;align=center;verticalAlign=middle;resizable=0;points=[];autosize=1;strokeColor=none;fillColor=none;" parent="1" vertex="1">
          <mxGeometry x="1483" y="650" width="60" height="30" as="geometry" />
        </mxCell>
        <mxCell id="62" value="Returns to" style="text;html=1;align=center;verticalAlign=middle;resizable=0;points=[];autosize=1;strokeColor=none;fillColor=none;rotation=20;" parent="1" vertex="1">
          <mxGeometry x="1113" y="580" width="80" height="30" as="geometry" />
        </mxCell>
        <mxCell id="68" style="edgeStyle=none;html=1;entryX=0.5;entryY=1;entryDx=0;entryDy=0;" parent="1" source="66" target="24" edge="1">
          <mxGeometry relative="1" as="geometry">
            <Array as="points">
              <mxPoint x="1143" y="800" />
            </Array>
          </mxGeometry>
        </mxCell>
        <mxCell id="66" value="Final Win" style="rhombus;whiteSpace=wrap;html=1;" parent="1" vertex="1">
          <mxGeometry x="1274" y="760" width="80" height="80" as="geometry" />
        </mxCell>
        <mxCell id="71" style="edgeStyle=none;html=1;entryX=0;entryY=0.5;entryDx=0;entryDy=0;" parent="1" source="69" target="21" edge="1">
          <mxGeometry relative="1" as="geometry" />
        </mxCell>
        <mxCell id="72" style="edgeStyle=none;html=1;entryX=0;entryY=0.5;entryDx=0;entryDy=0;" parent="1" source="69" target="22" edge="1">
          <mxGeometry relative="1" as="geometry" />
        </mxCell>
        <mxCell id="73" style="edgeStyle=none;html=1;entryX=0;entryY=0.5;entryDx=0;entryDy=0;" parent="1" source="69" target="23" edge="1">
          <mxGeometry relative="1" as="geometry" />
        </mxCell>
        <mxCell id="74" style="edgeStyle=none;html=1;entryX=0;entryY=0.5;entryDx=0;entryDy=0;" parent="1" source="69" target="24" edge="1">
          <mxGeometry relative="1" as="geometry" />
        </mxCell>
        <mxCell id="69" value="Run()" style="ellipse;whiteSpace=wrap;html=1;" parent="1" vertex="1">
          <mxGeometry x="900" y="372.5" width="82.5" height="55" as="geometry" />
        </mxCell>
        <mxCell id="76" style="edgeStyle=none;html=1;entryX=0.5;entryY=0;entryDx=0;entryDy=0;" parent="1" source="75" target="77" edge="1">
          <mxGeometry relative="1" as="geometry">
            <mxPoint x="240" y="1040" as="targetPoint" />
          </mxGeometry>
        </mxCell>
        <mxCell id="75" value="Main Game Loop" style="rounded=1;whiteSpace=wrap;html=1;" parent="1" vertex="1">
          <mxGeometry x="180" y="820" width="120" height="60" as="geometry" />
        </mxCell>
        <mxCell id="78" style="edgeStyle=none;html=1;entryX=0.25;entryY=0;entryDx=0;entryDy=0;" parent="1" source="77" target="80" edge="1">
          <mxGeometry relative="1" as="geometry">
            <mxPoint x="320" y="1040" as="targetPoint" />
          </mxGeometry>
        </mxCell>
        <mxCell id="79" style="edgeStyle=none;html=1;entryX=0.5;entryY=0;entryDx=0;entryDy=0;" parent="1" source="77" target="81" edge="1">
          <mxGeometry relative="1" as="geometry">
            <mxPoint x="160" y="1040" as="targetPoint" />
          </mxGeometry>
        </mxCell>
        <mxCell id="77" value="Check for any kind of Interaction" style="rounded=1;whiteSpace=wrap;html=1;" parent="1" vertex="1">
          <mxGeometry x="180" y="970" width="120" height="30" as="geometry" />
        </mxCell>
        <mxCell id="86" value="" style="edgeStyle=none;html=1;" parent="1" source="80" target="85" edge="1">
          <mxGeometry relative="1" as="geometry" />
        </mxCell>
        <mxCell id="80" value="Yes" style="text;html=1;align=center;verticalAlign=middle;whiteSpace=wrap;rounded=0;" parent="1" vertex="1">
          <mxGeometry x="300" y="1040" width="60" height="30" as="geometry" />
        </mxCell>
        <mxCell id="84" style="edgeStyle=none;html=1;entryX=0.5;entryY=1;entryDx=0;entryDy=0;" parent="1" source="81" target="83" edge="1">
          <mxGeometry relative="1" as="geometry">
            <Array as="points">
              <mxPoint x="83" y="1055" />
            </Array>
          </mxGeometry>
        </mxCell>
        <mxCell id="81" value="No" style="text;html=1;align=center;verticalAlign=middle;whiteSpace=wrap;rounded=0;" parent="1" vertex="1">
          <mxGeometry x="130" y="1040" width="60" height="30" as="geometry" />
        </mxCell>
        <mxCell id="88" style="edgeStyle=none;html=1;entryX=0;entryY=0.5;entryDx=0;entryDy=0;" parent="1" source="83" target="75" edge="1">
          <mxGeometry relative="1" as="geometry">
            <Array as="points">
              <mxPoint x="83" y="850" />
            </Array>
          </mxGeometry>
        </mxCell>
        <mxCell id="90" style="edgeStyle=none;html=1;entryX=0.5;entryY=1;entryDx=0;entryDy=0;" parent="1" source="83" target="14" edge="1">
          <mxGeometry relative="1" as="geometry">
            <Array as="points">
              <mxPoint x="80" y="500" />
              <mxPoint x="815" y="500" />
            </Array>
          </mxGeometry>
        </mxCell>
        <mxCell id="83" value="Execute Current GameState" style="ellipse;whiteSpace=wrap;html=1;" parent="1" vertex="1">
          <mxGeometry x="30" y="920" width="105" height="70" as="geometry" />
        </mxCell>
        <mxCell id="87" style="edgeStyle=none;html=1;entryX=1;entryY=0.5;entryDx=0;entryDy=0;" parent="1" source="85" target="75" edge="1">
          <mxGeometry relative="1" as="geometry">
            <Array as="points">
              <mxPoint x="485" y="850" />
            </Array>
          </mxGeometry>
        </mxCell>
        <mxCell id="85" value="Change to new triggered GameState" style="ellipse;whiteSpace=wrap;html=1;" parent="1" vertex="1">
          <mxGeometry x="430" y="1015" width="110" height="80" as="geometry" />
        </mxCell>
        <mxCell id="105" style="edgeStyle=none;html=1;entryX=0;entryY=0.5;entryDx=0;entryDy=0;" parent="1" source="91" edge="1">
          <mxGeometry relative="1" as="geometry">
            <mxPoint x="2450" y="60" as="targetPoint" />
          </mxGeometry>
        </mxCell>
        <mxCell id="ZLR4HSFNZyRXdtr1YlKm-145" style="edgeStyle=orthogonalEdgeStyle;rounded=0;orthogonalLoop=1;jettySize=auto;html=1;entryX=0.5;entryY=0;entryDx=0;entryDy=0;" parent="1" source="91" target="ZLR4HSFNZyRXdtr1YlKm-144" edge="1">
          <mxGeometry relative="1" as="geometry" />
        </mxCell>
        <mxCell id="91" value="GameEventManager" style="rounded=1;whiteSpace=wrap;html=1;" parent="1" vertex="1">
          <mxGeometry x="2260" y="40" width="160" height="40" as="geometry" />
        </mxCell>
        <mxCell id="134" style="edgeStyle=none;html=1;entryX=0.5;entryY=0;entryDx=0;entryDy=0;" parent="1" source="92" target="115" edge="1">
          <mxGeometry relative="1" as="geometry" />
        </mxCell>
        <mxCell id="92" value="Called by:&lt;div&gt;GameLoop&lt;/div&gt;&lt;div&gt;(every tick)&lt;/div&gt;" style="ellipse;whiteSpace=wrap;html=1;" parent="1" vertex="1">
          <mxGeometry x="2470" y="-80" width="100" height="60" as="geometry" />
        </mxCell>
        <mxCell id="98" style="edgeStyle=none;html=1;" parent="1" source="96" edge="1">
          <mxGeometry relative="1" as="geometry">
            <mxPoint x="2840" y="60" as="targetPoint" />
          </mxGeometry>
        </mxCell>
        <mxCell id="129" value="True" style="edgeLabel;html=1;align=center;verticalAlign=middle;resizable=0;points=[];" parent="98" vertex="1" connectable="0">
          <mxGeometry x="-0.0806" y="3" relative="1" as="geometry">
            <mxPoint as="offset" />
          </mxGeometry>
        </mxCell>
        <mxCell id="99" style="edgeStyle=none;html=1;" parent="1" source="96" edge="1">
          <mxGeometry relative="1" as="geometry">
            <mxPoint x="2710" y="160" as="targetPoint" />
          </mxGeometry>
        </mxCell>
        <mxCell id="127" value="False" style="edgeLabel;html=1;align=center;verticalAlign=middle;resizable=0;points=[];" parent="99" vertex="1" connectable="0">
          <mxGeometry x="-0.3453" relative="1" as="geometry">
            <mxPoint as="offset" />
          </mxGeometry>
        </mxCell>
        <mxCell id="96" value="&lt;div&gt;spawnTimer &amp;gt; 10s&lt;br&gt;(600 Ticks)&lt;/div&gt;" style="shape=hexagon;perimeter=hexagonPerimeter2;whiteSpace=wrap;html=1;fixedSize=1;" parent="1" vertex="1">
          <mxGeometry x="2650" y="30" width="120" height="60" as="geometry" />
        </mxCell>
        <mxCell id="111" style="edgeStyle=none;html=1;entryX=0;entryY=0.5;entryDx=0;entryDy=0;" parent="1" source="102" target="110" edge="1">
          <mxGeometry relative="1" as="geometry" />
        </mxCell>
        <mxCell id="Faa3zSD_fbPmVx0ir4o6-187" style="edgeStyle=orthogonalEdgeStyle;rounded=0;orthogonalLoop=1;jettySize=auto;html=1;entryX=1;entryY=1;entryDx=0;entryDy=0;" edge="1" parent="1" source="102" target="Faa3zSD_fbPmVx0ir4o6-143">
          <mxGeometry relative="1" as="geometry">
            <Array as="points">
              <mxPoint x="2910" y="-250" />
              <mxPoint x="2700" y="-250" />
              <mxPoint x="2700" y="-530" />
              <mxPoint x="2685" y="-530" />
            </Array>
          </mxGeometry>
        </mxCell>
        <mxCell id="102" value="Spawn 1 Enemy" style="shape=process;whiteSpace=wrap;html=1;backgroundOutline=1;" parent="1" vertex="1">
          <mxGeometry x="2840" y="40" width="140" height="40" as="geometry" />
        </mxCell>
        <mxCell id="106" style="edgeStyle=none;html=1;entryX=0;entryY=0.5;entryDx=0;entryDy=0;" parent="1" target="96" edge="1">
          <mxGeometry relative="1" as="geometry">
            <mxPoint x="2570" y="60" as="sourcePoint" />
          </mxGeometry>
        </mxCell>
        <mxCell id="112" style="edgeStyle=none;html=1;entryX=0.5;entryY=1;entryDx=0;entryDy=0;" parent="1" source="110" target="115" edge="1">
          <mxGeometry relative="1" as="geometry">
            <mxPoint x="2510" y="80" as="targetPoint" />
            <Array as="points">
              <mxPoint x="3080" y="280" />
              <mxPoint x="2520" y="280" />
            </Array>
          </mxGeometry>
        </mxCell>
        <mxCell id="110" value="spawnTimer = 0" style="rounded=1;whiteSpace=wrap;html=1;arcSize=0;" parent="1" vertex="1">
          <mxGeometry x="3020" y="30" width="120" height="60" as="geometry" />
        </mxCell>
        <mxCell id="114" style="edgeStyle=none;html=1;exitX=0;exitY=0.5;exitDx=0;exitDy=0;entryX=0;entryY=1;entryDx=0;entryDy=0;" parent="1" source="113" target="115" edge="1">
          <mxGeometry relative="1" as="geometry">
            <mxPoint x="2480" y="80" as="targetPoint" />
            <Array as="points">
              <mxPoint x="2485" y="190" />
            </Array>
          </mxGeometry>
        </mxCell>
        <mxCell id="113" value="spawnTimer += 1" style="rounded=1;whiteSpace=wrap;html=1;arcSize=0;" parent="1" vertex="1">
          <mxGeometry x="2650" y="160" width="120" height="60" as="geometry" />
        </mxCell>
        <mxCell id="115" value="enemySpawner" style="rhombus;whiteSpace=wrap;html=1;" parent="1" vertex="1">
          <mxGeometry x="2450" y="20" width="140" height="80" as="geometry" />
        </mxCell>
        <mxCell id="137" style="edgeStyle=none;html=1;exitX=0.5;exitY=0;exitDx=0;exitDy=0;entryX=0.5;entryY=1;entryDx=0;entryDy=0;" parent="1" source="123" target="132" edge="1">
          <mxGeometry relative="1" as="geometry" />
        </mxCell>
        <mxCell id="123" value="__init__" style="rhombus;whiteSpace=wrap;html=1;" parent="1" vertex="1">
          <mxGeometry x="2300" y="-130" width="80" height="80" as="geometry" />
        </mxCell>
        <mxCell id="131" style="edgeStyle=none;html=1;entryX=0.5;entryY=1;entryDx=0;entryDy=0;" parent="1" source="91" target="123" edge="1">
          <mxGeometry relative="1" as="geometry" />
        </mxCell>
        <mxCell id="132" value="gameTime = 0&lt;div&gt;&lt;br&gt;&lt;/div&gt;" style="rounded=0;whiteSpace=wrap;html=1;" parent="1" vertex="1">
          <mxGeometry x="2280" y="-230" width="120" height="40" as="geometry" />
        </mxCell>
        <mxCell id="136" style="edgeStyle=none;html=1;entryX=0;entryY=0.5;entryDx=0;entryDy=0;" parent="1" source="133" target="123" edge="1">
          <mxGeometry relative="1" as="geometry" />
        </mxCell>
        <mxCell id="133" value="Called once&lt;br&gt;Game Init" style="ellipse;whiteSpace=wrap;html=1;" parent="1" vertex="1">
          <mxGeometry x="2160" y="-170" width="100" height="60" as="geometry" />
        </mxCell>
        <mxCell id="ZLR4HSFNZyRXdtr1YlKm-146" style="edgeStyle=orthogonalEdgeStyle;rounded=0;orthogonalLoop=1;jettySize=auto;html=1;entryX=0.5;entryY=0;entryDx=0;entryDy=0;" parent="1" source="ZLR4HSFNZyRXdtr1YlKm-144" target="ZLR4HSFNZyRXdtr1YlKm-147" edge="1">
          <mxGeometry relative="1" as="geometry">
            <mxPoint x="2340" y="250" as="targetPoint" />
          </mxGeometry>
        </mxCell>
        <mxCell id="ZLR4HSFNZyRXdtr1YlKm-144" value="timer" style="rhombus;whiteSpace=wrap;html=1;" parent="1" vertex="1">
          <mxGeometry x="2300" y="120" width="80" height="80" as="geometry" />
        </mxCell>
        <mxCell id="ZLR4HSFNZyRXdtr1YlKm-147" value="gameTime += 1" style="rounded=0;whiteSpace=wrap;html=1;" parent="1" vertex="1">
          <mxGeometry x="2280" y="240" width="120" height="60" as="geometry" />
        </mxCell>
        <mxCell id="ZLR4HSFNZyRXdtr1YlKm-149" style="edgeStyle=orthogonalEdgeStyle;rounded=0;orthogonalLoop=1;jettySize=auto;html=1;entryX=0;entryY=0.5;entryDx=0;entryDy=0;" parent="1" source="ZLR4HSFNZyRXdtr1YlKm-148" target="ZLR4HSFNZyRXdtr1YlKm-144" edge="1">
          <mxGeometry relative="1" as="geometry" />
        </mxCell>
        <mxCell id="ZLR4HSFNZyRXdtr1YlKm-148" value="Called every frame in Game.run()" style="ellipse;whiteSpace=wrap;html=1;" parent="1" vertex="1">
          <mxGeometry x="2170" y="130" width="100" height="60" as="geometry" />
        </mxCell>
        <mxCell id="Faa3zSD_fbPmVx0ir4o6-139" style="edgeStyle=orthogonalEdgeStyle;rounded=0;orthogonalLoop=1;jettySize=auto;html=1;entryX=0.5;entryY=1;entryDx=0;entryDy=0;" edge="1" parent="1" source="Faa3zSD_fbPmVx0ir4o6-137" target="Faa3zSD_fbPmVx0ir4o6-138">
          <mxGeometry relative="1" as="geometry" />
        </mxCell>
        <mxCell id="Faa3zSD_fbPmVx0ir4o6-140" value="gameStateManager, display" style="edgeLabel;html=1;align=center;verticalAlign=middle;resizable=0;points=[];" vertex="1" connectable="0" parent="Faa3zSD_fbPmVx0ir4o6-139">
          <mxGeometry x="0.0452" relative="1" as="geometry">
            <mxPoint as="offset" />
          </mxGeometry>
        </mxCell>
        <mxCell id="Faa3zSD_fbPmVx0ir4o6-144" style="edgeStyle=orthogonalEdgeStyle;rounded=0;orthogonalLoop=1;jettySize=auto;html=1;entryX=0;entryY=0.5;entryDx=0;entryDy=0;" edge="1" parent="1" source="Faa3zSD_fbPmVx0ir4o6-137" target="Faa3zSD_fbPmVx0ir4o6-143">
          <mxGeometry relative="1" as="geometry" />
        </mxCell>
        <mxCell id="Faa3zSD_fbPmVx0ir4o6-162" style="edgeStyle=orthogonalEdgeStyle;rounded=0;orthogonalLoop=1;jettySize=auto;html=1;exitX=0.75;exitY=1;exitDx=0;exitDy=0;entryX=0.5;entryY=0;entryDx=0;entryDy=0;" edge="1" parent="1" source="Faa3zSD_fbPmVx0ir4o6-137" target="Faa3zSD_fbPmVx0ir4o6-161">
          <mxGeometry relative="1" as="geometry" />
        </mxCell>
        <mxCell id="Faa3zSD_fbPmVx0ir4o6-171" style="edgeStyle=orthogonalEdgeStyle;rounded=0;orthogonalLoop=1;jettySize=auto;html=1;" edge="1" parent="1" source="Faa3zSD_fbPmVx0ir4o6-137">
          <mxGeometry relative="1" as="geometry">
            <mxPoint x="2500" y="-500" as="targetPoint" />
          </mxGeometry>
        </mxCell>
        <mxCell id="Faa3zSD_fbPmVx0ir4o6-174" value="enemy" style="edgeLabel;html=1;align=center;verticalAlign=middle;resizable=0;points=[];" vertex="1" connectable="0" parent="Faa3zSD_fbPmVx0ir4o6-171">
          <mxGeometry x="-0.1538" y="1" relative="1" as="geometry">
            <mxPoint as="offset" />
          </mxGeometry>
        </mxCell>
        <mxCell id="Faa3zSD_fbPmVx0ir4o6-180" style="edgeStyle=orthogonalEdgeStyle;rounded=0;orthogonalLoop=1;jettySize=auto;html=1;entryX=1;entryY=0.5;entryDx=0;entryDy=0;" edge="1" parent="1" source="Faa3zSD_fbPmVx0ir4o6-137" target="Faa3zSD_fbPmVx0ir4o6-179">
          <mxGeometry relative="1" as="geometry" />
        </mxCell>
        <mxCell id="Faa3zSD_fbPmVx0ir4o6-137" value="EnemyManager" style="rounded=1;whiteSpace=wrap;html=1;" vertex="1" parent="1">
          <mxGeometry x="2420" y="-600" width="160" height="40" as="geometry" />
        </mxCell>
        <mxCell id="Faa3zSD_fbPmVx0ir4o6-142" style="edgeStyle=orthogonalEdgeStyle;rounded=0;orthogonalLoop=1;jettySize=auto;html=1;entryX=0.5;entryY=1;entryDx=0;entryDy=0;" edge="1" parent="1" source="Faa3zSD_fbPmVx0ir4o6-138" target="Faa3zSD_fbPmVx0ir4o6-141">
          <mxGeometry relative="1" as="geometry" />
        </mxCell>
        <mxCell id="Faa3zSD_fbPmVx0ir4o6-138" value="__Init__" style="rhombus;whiteSpace=wrap;html=1;" vertex="1" parent="1">
          <mxGeometry x="2460" y="-720" width="80" height="80" as="geometry" />
        </mxCell>
        <mxCell id="Faa3zSD_fbPmVx0ir4o6-141" value="allEnemies = [ ]&lt;div&gt;&lt;br&gt;&lt;/div&gt;&lt;div&gt;allStats = [&lt;/div&gt;&lt;div&gt;[stats1]&lt;/div&gt;&lt;div&gt;[stats2]&lt;/div&gt;&lt;div&gt;]&lt;/div&gt;" style="rounded=0;whiteSpace=wrap;html=1;" vertex="1" parent="1">
          <mxGeometry x="2440" y="-850" width="120" height="100" as="geometry" />
        </mxCell>
        <mxCell id="Faa3zSD_fbPmVx0ir4o6-154" style="edgeStyle=orthogonalEdgeStyle;rounded=0;orthogonalLoop=1;jettySize=auto;html=1;entryX=0;entryY=0.5;entryDx=0;entryDy=0;" edge="1" parent="1" source="Faa3zSD_fbPmVx0ir4o6-143">
          <mxGeometry relative="1" as="geometry">
            <mxPoint x="2750" y="-580.0000000000002" as="targetPoint" />
          </mxGeometry>
        </mxCell>
        <mxCell id="Faa3zSD_fbPmVx0ir4o6-143" value="createEnemy" style="rhombus;whiteSpace=wrap;html=1;" vertex="1" parent="1">
          <mxGeometry x="2610" y="-620" width="100" height="80" as="geometry" />
        </mxCell>
        <mxCell id="Faa3zSD_fbPmVx0ir4o6-146" style="edgeStyle=orthogonalEdgeStyle;rounded=0;orthogonalLoop=1;jettySize=auto;html=1;exitX=0;exitY=0.5;exitDx=0;exitDy=0;entryX=1;entryY=0.5;entryDx=0;entryDy=0;" edge="1" parent="1" source="Faa3zSD_fbPmVx0ir4o6-145" target="Faa3zSD_fbPmVx0ir4o6-138">
          <mxGeometry relative="1" as="geometry" />
        </mxCell>
        <mxCell id="Faa3zSD_fbPmVx0ir4o6-145" value="Once in Game __init__" style="ellipse;whiteSpace=wrap;html=1;fontSize=7;" vertex="1" parent="1">
          <mxGeometry x="2560" y="-700" width="60" height="40" as="geometry" />
        </mxCell>
        <mxCell id="Faa3zSD_fbPmVx0ir4o6-152" style="edgeStyle=orthogonalEdgeStyle;rounded=0;orthogonalLoop=1;jettySize=auto;html=1;exitX=1;exitY=1;exitDx=0;exitDy=0;entryX=0.5;entryY=0;entryDx=0;entryDy=0;" edge="1" parent="1" source="Faa3zSD_fbPmVx0ir4o6-148" target="Faa3zSD_fbPmVx0ir4o6-143">
          <mxGeometry relative="1" as="geometry" />
        </mxCell>
        <mxCell id="Faa3zSD_fbPmVx0ir4o6-148" value="on demand" style="ellipse;whiteSpace=wrap;html=1;fontSize=7;" vertex="1" parent="1">
          <mxGeometry x="2630" y="-680" width="60" height="40" as="geometry" />
        </mxCell>
        <mxCell id="Faa3zSD_fbPmVx0ir4o6-157" style="edgeStyle=orthogonalEdgeStyle;rounded=0;orthogonalLoop=1;jettySize=auto;html=1;" edge="1" parent="1" source="Faa3zSD_fbPmVx0ir4o6-156">
          <mxGeometry relative="1" as="geometry">
            <mxPoint x="2880" y="-580.0000000000002" as="targetPoint" />
          </mxGeometry>
        </mxCell>
        <mxCell id="Faa3zSD_fbPmVx0ir4o6-156" value="Enemy" style="shape=delay;whiteSpace=wrap;html=1;" vertex="1" parent="1">
          <mxGeometry x="2750" y="-600" width="80" height="40" as="geometry" />
        </mxCell>
        <mxCell id="Faa3zSD_fbPmVx0ir4o6-159" style="edgeStyle=orthogonalEdgeStyle;rounded=0;orthogonalLoop=1;jettySize=auto;html=1;entryX=0.5;entryY=0;entryDx=0;entryDy=0;" edge="1" parent="1" source="Faa3zSD_fbPmVx0ir4o6-158" target="Faa3zSD_fbPmVx0ir4o6-156">
          <mxGeometry relative="1" as="geometry" />
        </mxCell>
        <mxCell id="Faa3zSD_fbPmVx0ir4o6-158" value="Stats:&lt;br&gt;random entry from allStats [ ]" style="rounded=0;whiteSpace=wrap;html=1;" vertex="1" parent="1">
          <mxGeometry x="2730" y="-690" width="120" height="60" as="geometry" />
        </mxCell>
        <mxCell id="Faa3zSD_fbPmVx0ir4o6-167" style="edgeStyle=orthogonalEdgeStyle;rounded=0;orthogonalLoop=1;jettySize=auto;html=1;" edge="1" parent="1" source="Faa3zSD_fbPmVx0ir4o6-160" target="Faa3zSD_fbPmVx0ir4o6-166">
          <mxGeometry relative="1" as="geometry" />
        </mxCell>
        <mxCell id="Faa3zSD_fbPmVx0ir4o6-160" value="Append new enemy to allEnemies [ ]" style="rounded=0;whiteSpace=wrap;html=1;" vertex="1" parent="1">
          <mxGeometry x="2880" y="-610" width="120" height="60" as="geometry" />
        </mxCell>
        <mxCell id="Faa3zSD_fbPmVx0ir4o6-170" style="edgeStyle=orthogonalEdgeStyle;rounded=0;orthogonalLoop=1;jettySize=auto;html=1;" edge="1" parent="1" source="Faa3zSD_fbPmVx0ir4o6-161" target="Faa3zSD_fbPmVx0ir4o6-168">
          <mxGeometry relative="1" as="geometry" />
        </mxCell>
        <mxCell id="Faa3zSD_fbPmVx0ir4o6-161" value="getEnemies" style="rhombus;whiteSpace=wrap;html=1;" vertex="1" parent="1">
          <mxGeometry x="2550" y="-530" width="100" height="60" as="geometry" />
        </mxCell>
        <mxCell id="Faa3zSD_fbPmVx0ir4o6-166" value="new enemy" style="shape=trapezoid;perimeter=trapezoidPerimeter;whiteSpace=wrap;html=1;fixedSize=1;" vertex="1" parent="1">
          <mxGeometry x="3030" y="-610" width="120" height="60" as="geometry" />
        </mxCell>
        <mxCell id="Faa3zSD_fbPmVx0ir4o6-168" value="allEnemies [ ]" style="shape=trapezoid;perimeter=trapezoidPerimeter;whiteSpace=wrap;html=1;fixedSize=1;" vertex="1" parent="1">
          <mxGeometry x="2710" y="-530" width="120" height="60" as="geometry" />
        </mxCell>
        <mxCell id="Faa3zSD_fbPmVx0ir4o6-176" style="edgeStyle=orthogonalEdgeStyle;rounded=0;orthogonalLoop=1;jettySize=auto;html=1;exitX=0.5;exitY=1;exitDx=0;exitDy=0;entryX=0.5;entryY=0;entryDx=0;entryDy=0;" edge="1" parent="1" source="Faa3zSD_fbPmVx0ir4o6-172" target="Faa3zSD_fbPmVx0ir4o6-175">
          <mxGeometry relative="1" as="geometry" />
        </mxCell>
        <mxCell id="Faa3zSD_fbPmVx0ir4o6-177" style="edgeStyle=orthogonalEdgeStyle;rounded=0;orthogonalLoop=1;jettySize=auto;html=1;exitX=1;exitY=1;exitDx=0;exitDy=0;entryX=0.5;entryY=0;entryDx=0;entryDy=0;" edge="1" parent="1" source="Faa3zSD_fbPmVx0ir4o6-172" target="Faa3zSD_fbPmVx0ir4o6-178">
          <mxGeometry relative="1" as="geometry">
            <mxPoint x="2620" y="-400" as="targetPoint" />
          </mxGeometry>
        </mxCell>
        <mxCell id="Faa3zSD_fbPmVx0ir4o6-172" value="appendEnemy" style="rhombus;whiteSpace=wrap;html=1;" vertex="1" parent="1">
          <mxGeometry x="2440" y="-500" width="120" height="80" as="geometry" />
        </mxCell>
        <mxCell id="Faa3zSD_fbPmVx0ir4o6-175" value="Appends enemy to allEnemies [ ]" style="rounded=0;whiteSpace=wrap;html=1;" vertex="1" parent="1">
          <mxGeometry x="2440" y="-400" width="120" height="60" as="geometry" />
        </mxCell>
        <mxCell id="Faa3zSD_fbPmVx0ir4o6-178" value="removeEnemy" style="rhombus;whiteSpace=wrap;html=1;" vertex="1" parent="1">
          <mxGeometry x="2580" y="-400" width="100" height="60" as="geometry" />
        </mxCell>
        <mxCell id="Faa3zSD_fbPmVx0ir4o6-181" style="edgeStyle=orthogonalEdgeStyle;rounded=0;orthogonalLoop=1;jettySize=auto;html=1;entryX=1;entryY=0.5;entryDx=0;entryDy=0;" edge="1" parent="1" source="Faa3zSD_fbPmVx0ir4o6-179" target="Faa3zSD_fbPmVx0ir4o6-182">
          <mxGeometry relative="1" as="geometry">
            <mxPoint x="2230" y="-580.0000000000002" as="targetPoint" />
          </mxGeometry>
        </mxCell>
        <mxCell id="Faa3zSD_fbPmVx0ir4o6-179" value="renderEnemies" style="rhombus;whiteSpace=wrap;html=1;" vertex="1" parent="1">
          <mxGeometry x="2270" y="-610" width="120" height="60" as="geometry" />
        </mxCell>
        <mxCell id="Faa3zSD_fbPmVx0ir4o6-184" style="edgeStyle=orthogonalEdgeStyle;rounded=0;orthogonalLoop=1;jettySize=auto;html=1;entryX=0.5;entryY=0;entryDx=0;entryDy=0;" edge="1" parent="1" source="Faa3zSD_fbPmVx0ir4o6-182" target="Faa3zSD_fbPmVx0ir4o6-185">
          <mxGeometry relative="1" as="geometry">
            <mxPoint x="2170" y="-509.9999999999998" as="targetPoint" />
          </mxGeometry>
        </mxCell>
        <mxCell id="Faa3zSD_fbPmVx0ir4o6-182" value="for i in allEnemies [ ]" style="shape=tapeData;whiteSpace=wrap;html=1;perimeter=ellipsePerimeter;" vertex="1" parent="1">
          <mxGeometry x="2110" y="-620" width="120" height="80" as="geometry" />
        </mxCell>
        <mxCell id="Faa3zSD_fbPmVx0ir4o6-185" value="draw i" style="rounded=0;whiteSpace=wrap;html=1;" vertex="1" parent="1">
          <mxGeometry x="2130" y="-500" width="80" height="40" as="geometry" />
        </mxCell>
        <mxCell id="Faa3zSD_fbPmVx0ir4o6-191" style="edgeStyle=orthogonalEdgeStyle;rounded=0;orthogonalLoop=1;jettySize=auto;html=1;entryX=0.5;entryY=1;entryDx=0;entryDy=0;" edge="1" parent="1" source="Faa3zSD_fbPmVx0ir4o6-189" target="Faa3zSD_fbPmVx0ir4o6-190">
          <mxGeometry relative="1" as="geometry" />
        </mxCell>
        <mxCell id="Faa3zSD_fbPmVx0ir4o6-192" value="currentState" style="edgeLabel;html=1;align=center;verticalAlign=middle;resizable=0;points=[];" vertex="1" connectable="0" parent="Faa3zSD_fbPmVx0ir4o6-191">
          <mxGeometry x="-0.25" y="2" relative="1" as="geometry">
            <mxPoint as="offset" />
          </mxGeometry>
        </mxCell>
        <mxCell id="Faa3zSD_fbPmVx0ir4o6-196" value="" style="edgeStyle=orthogonalEdgeStyle;rounded=0;orthogonalLoop=1;jettySize=auto;html=1;" edge="1" parent="1" source="Faa3zSD_fbPmVx0ir4o6-189" target="Faa3zSD_fbPmVx0ir4o6-195">
          <mxGeometry relative="1" as="geometry" />
        </mxCell>
        <mxCell id="Faa3zSD_fbPmVx0ir4o6-202" value="" style="edgeStyle=orthogonalEdgeStyle;rounded=0;orthogonalLoop=1;jettySize=auto;html=1;" edge="1" parent="1" source="Faa3zSD_fbPmVx0ir4o6-189" target="Faa3zSD_fbPmVx0ir4o6-201">
          <mxGeometry relative="1" as="geometry" />
        </mxCell>
        <mxCell id="Faa3zSD_fbPmVx0ir4o6-206" value="" style="edgeStyle=orthogonalEdgeStyle;rounded=0;orthogonalLoop=1;jettySize=auto;html=1;" edge="1" parent="1" source="Faa3zSD_fbPmVx0ir4o6-189" target="Faa3zSD_fbPmVx0ir4o6-205">
          <mxGeometry relative="1" as="geometry" />
        </mxCell>
        <mxCell id="Faa3zSD_fbPmVx0ir4o6-211" value="currentEnemy" style="edgeLabel;html=1;align=center;verticalAlign=middle;resizable=0;points=[];" vertex="1" connectable="0" parent="Faa3zSD_fbPmVx0ir4o6-206">
          <mxGeometry x="0.2286" y="-2" relative="1" as="geometry">
            <mxPoint as="offset" />
          </mxGeometry>
        </mxCell>
        <mxCell id="Faa3zSD_fbPmVx0ir4o6-189" value="&amp;nbsp;gameStateManager" style="rounded=1;whiteSpace=wrap;html=1;" vertex="1" parent="1">
          <mxGeometry x="2570" y="630" width="160" height="40" as="geometry" />
        </mxCell>
        <mxCell id="Faa3zSD_fbPmVx0ir4o6-194" value="" style="edgeStyle=orthogonalEdgeStyle;rounded=0;orthogonalLoop=1;jettySize=auto;html=1;" edge="1" parent="1" source="Faa3zSD_fbPmVx0ir4o6-190" target="Faa3zSD_fbPmVx0ir4o6-193">
          <mxGeometry relative="1" as="geometry" />
        </mxCell>
        <mxCell id="Faa3zSD_fbPmVx0ir4o6-190" value="__init__" style="rhombus;whiteSpace=wrap;html=1;" vertex="1" parent="1">
          <mxGeometry x="2610" y="510" width="80" height="80" as="geometry" />
        </mxCell>
        <mxCell id="Faa3zSD_fbPmVx0ir4o6-193" value="currentstate" style="rounded=0;whiteSpace=wrap;html=1;" vertex="1" parent="1">
          <mxGeometry x="2600" y="440" width="100" height="40" as="geometry" />
        </mxCell>
        <mxCell id="Faa3zSD_fbPmVx0ir4o6-200" value="" style="edgeStyle=orthogonalEdgeStyle;rounded=0;orthogonalLoop=1;jettySize=auto;html=1;" edge="1" parent="1" source="Faa3zSD_fbPmVx0ir4o6-195" target="Faa3zSD_fbPmVx0ir4o6-199">
          <mxGeometry relative="1" as="geometry" />
        </mxCell>
        <mxCell id="Faa3zSD_fbPmVx0ir4o6-195" value="getState" style="rhombus;whiteSpace=wrap;html=1;" vertex="1" parent="1">
          <mxGeometry x="2770" y="610" width="80" height="80" as="geometry" />
        </mxCell>
        <mxCell id="Faa3zSD_fbPmVx0ir4o6-198" value="" style="edgeStyle=orthogonalEdgeStyle;rounded=0;orthogonalLoop=1;jettySize=auto;html=1;" edge="1" parent="1" source="Faa3zSD_fbPmVx0ir4o6-197" target="Faa3zSD_fbPmVx0ir4o6-195">
          <mxGeometry relative="1" as="geometry" />
        </mxCell>
        <mxCell id="Faa3zSD_fbPmVx0ir4o6-197" value="on demand" style="ellipse;whiteSpace=wrap;html=1;fontSize=7;" vertex="1" parent="1">
          <mxGeometry x="2780" y="550" width="60" height="40" as="geometry" />
        </mxCell>
        <mxCell id="Faa3zSD_fbPmVx0ir4o6-199" value="currentState" style="shape=trapezoid;perimeter=trapezoidPerimeter;whiteSpace=wrap;html=1;fixedSize=1;" vertex="1" parent="1">
          <mxGeometry x="2870" y="620" width="120" height="60" as="geometry" />
        </mxCell>
        <mxCell id="Faa3zSD_fbPmVx0ir4o6-204" value="" style="edgeStyle=orthogonalEdgeStyle;rounded=0;orthogonalLoop=1;jettySize=auto;html=1;" edge="1" parent="1" source="Faa3zSD_fbPmVx0ir4o6-201" target="Faa3zSD_fbPmVx0ir4o6-203">
          <mxGeometry relative="1" as="geometry" />
        </mxCell>
        <mxCell id="Faa3zSD_fbPmVx0ir4o6-201" value="getCurrentEnemy" style="rhombus;whiteSpace=wrap;html=1;opacity=10;" vertex="1" parent="1">
          <mxGeometry x="2580" y="710" width="140" height="80" as="geometry" />
        </mxCell>
        <mxCell id="Faa3zSD_fbPmVx0ir4o6-203" value="currentEnemy" style="shape=trapezoid;perimeter=trapezoidPerimeter;whiteSpace=wrap;html=1;fixedSize=1;opacity=10;" vertex="1" parent="1">
          <mxGeometry x="2740" y="720" width="120" height="60" as="geometry" />
        </mxCell>
        <mxCell id="Faa3zSD_fbPmVx0ir4o6-212" value="" style="edgeStyle=orthogonalEdgeStyle;rounded=0;orthogonalLoop=1;jettySize=auto;html=1;" edge="1" parent="1" source="Faa3zSD_fbPmVx0ir4o6-205" target="Faa3zSD_fbPmVx0ir4o6-210">
          <mxGeometry relative="1" as="geometry" />
        </mxCell>
        <mxCell id="Faa3zSD_fbPmVx0ir4o6-205" value="setCurrentEnemy" style="rhombus;whiteSpace=wrap;html=1;" vertex="1" parent="1">
          <mxGeometry x="2300" y="610" width="140" height="80" as="geometry" />
        </mxCell>
        <mxCell id="Faa3zSD_fbPmVx0ir4o6-208" style="edgeStyle=orthogonalEdgeStyle;rounded=0;orthogonalLoop=1;jettySize=auto;html=1;entryX=0.5;entryY=0;entryDx=0;entryDy=0;" edge="1" parent="1" source="Faa3zSD_fbPmVx0ir4o6-207" target="Faa3zSD_fbPmVx0ir4o6-205">
          <mxGeometry relative="1" as="geometry" />
        </mxCell>
        <mxCell id="Faa3zSD_fbPmVx0ir4o6-207" value="Level" style="ellipse;whiteSpace=wrap;html=1;fontSize=7;" vertex="1" parent="1">
          <mxGeometry x="2340" y="525" width="60" height="40" as="geometry" />
        </mxCell>
        <mxCell id="Faa3zSD_fbPmVx0ir4o6-210" value="currentEnemy" style="rounded=0;whiteSpace=wrap;html=1;" vertex="1" parent="1">
          <mxGeometry x="2320" y="720" width="100" height="40" as="geometry" />
        </mxCell>
      </root>
    </mxGraphModel>
  </diagram>
</mxfile>
